<svg width="28" height="33" viewBox="0 0 28 33" fill="none" xmlns="http://www.w3.org/2000/svg">
<path d="M9.69231 23.0353C6.96744 23.4561 2.29744 22.747 0 22.6029C1.29231 22.1704 3.01538 20.8731 4.09231 19.792C5.32019 18.5594 6.03077 16.765 8.83077 15.2515C9.8022 14.7264 11.8462 14.3866 12.9231 14.1704C11.6308 13.6659 10.0154 13.0893 8.4 12.0083C6.67692 10.8551 6.67692 10.1802 4.95385 8.76501C4.09231 8.0574 2.22564 6.96321 1.07692 6.38663C2.58462 5.9542 5.81538 5.9542 9.04615 6.17042C11.797 6.35451 14.5026 7.61186 15.5077 8.33258C15.2923 7.82808 15.0338 7.38123 14.8615 7.03528C14.6462 6.60285 14 5.08934 14 4.22447C14 3.70555 13.5692 2.06231 12.7077 0.765015C15.5077 1.62988 18.0022 3.70163 18.9538 4.65691C20.0308 5.73799 20.6769 7.68393 20.8923 8.76501C21.1077 8.69294 21.5815 8.41907 21.7538 7.90015C21.9262 7.38123 21.9692 6.53078 21.9692 6.17042C22.8308 6.81907 23.0462 7.81366 23.0462 8.33258C23.0462 8.8515 22.9026 9.84609 22.8308 10.2785C23.2615 9.91817 24.2954 8.98123 24.9846 8.11636C25.6738 7.2515 26.5641 6.02627 26.9231 5.52177L28 6.38663C27.641 6.96321 26.7938 8.24609 26.2769 8.76501C25.76 9.28393 24.1231 10.783 23.4769 11.3596C23.5487 11.2875 24.3815 11.3164 25.4154 12.0083C26.4492 12.7001 26.6359 13.5218 26.7077 13.738C26.3487 13.6659 25.935 13.5218 25.4154 13.5218C25.2431 13.5218 24.3385 13.5218 24.1231 13.738C24.4103 14.1704 25.6132 15.0089 26.0615 15.6839C26.4923 16.3326 26.8734 17.8461 27.1385 19.5758C27.5692 22.3866 26.9231 23.9001 27.3538 25.8461C26.4923 25.1974 25.6308 24.765 24.5538 23.4677C23.9688 22.763 23.2615 21.5218 22.6154 20.4407C22.3282 22.0263 21.9262 25.0245 20.8923 26.9272C19.8585 28.8299 16.441 31.8281 15.0769 32.765C16.3692 28.8731 15.7231 26.1488 15.7231 23.9001C15.7231 21.6515 16.2974 20.3686 16.5846 19.792C15.6513 20.8731 12.4923 22.6029 9.69231 23.0353Z" fill="#FF3300"/>
</svg>
