<svg width="16" height="16" viewBox="0 0 16 16" fill="none" xmlns="http://www.w3.org/2000/svg">
<g clip-path="url(#clip0_245_1331)">
<path fill-rule="evenodd" clip-rule="evenodd" d="M6.42612 0C6.13833 0 5.89889 0.214542 5.87617 0.492767L5.72007 2.40408C5.1535 2.6223 4.62792 2.91909 4.15763 3.2806L2.34335 2.48336C2.0849 2.3698 1.77977 2.46487 1.63789 2.70318L0.0739676 5.33013C-0.0699279 5.57184 0.00193916 5.88021 0.239034 6.0384L1.86847 7.12561C1.82562 7.41109 1.80344 7.70306 1.80344 8.00007C1.80344 8.29701 1.82562 8.58893 1.86844 8.87436L0.239063 9.96153C0.00196866 10.1197 -0.0698983 10.4281 0.0739972 10.6698L1.63792 13.2968C1.7798 13.5351 2.08493 13.6301 2.34338 13.5166L4.15748 12.7194C4.62781 13.081 5.15344 13.3778 5.72008 13.5961L5.87617 15.5072C5.89889 15.7855 6.13833 16 6.42612 16H9.55398C9.83772 16 10.0752 15.7913 10.103 15.5174L10.298 13.5966C10.8647 13.3786 11.3904 13.0819 11.8608 12.7204L13.6471 13.5456C13.9069 13.6657 14.2182 13.5718 14.3621 13.3301L15.926 10.7032C16.0679 10.4649 16.0002 10.1611 15.7696 10.0008L14.151 8.87598C14.1939 8.59004 14.2162 8.29757 14.2162 8.00007C14.2162 7.7025 14.1939 7.40998 14.1509 7.12399L15.7696 5.99915C16.0002 5.83887 16.0679 5.53506 15.926 5.29676L14.3621 2.6698C14.2182 2.4281 13.9069 2.33427 13.6471 2.4543L11.8607 3.27957C11.3903 2.91821 10.8647 2.62156 10.2981 2.4035L10.103 0.482578C10.0752 0.208731 9.83772 0 9.55398 0H6.42612ZM8.00001 10.8104C9.60049 10.8104 10.8979 9.55219 10.8979 8.00007C10.8979 6.44794 9.60049 5.1897 8.00001 5.1897C6.39953 5.1897 5.10208 6.44794 5.10208 8.00007C5.10208 9.55219 6.39953 10.8104 8.00001 10.8104Z" fill="black"/>
</g>
<defs>
<clipPath id="clip0_245_1331">
<rect width="16" height="16" fill="white"/>
</clipPath>
</defs>
</svg>
