<svg width="28" height="32" viewBox="0 0 28 32" fill="none" xmlns="http://www.w3.org/2000/svg">
<path d="M9.69231 22.2703C6.96744 22.6911 2.29744 21.982 0 21.8378C1.29231 21.4054 3.01538 20.1081 4.09231 19.027C5.32019 17.7944 6.03077 16 8.83077 14.4865C9.8022 13.9614 11.8462 13.6216 12.9231 13.4054C11.6308 12.9009 10.0154 12.3243 8.4 11.2432C6.67692 10.0901 6.67692 9.41523 4.95385 8C4.09231 7.29238 2.22564 6.1982 1.07692 5.62162C2.58462 5.18919 5.81538 5.18919 9.04615 5.4054C11.797 5.5895 14.5026 6.84684 15.5077 7.56756C15.2923 7.06306 15.0338 6.61621 14.8615 6.27027C14.6462 5.83784 14 4.32432 14 3.45946C14 2.94054 13.5692 1.2973 12.7077 0C15.5077 0.864865 18.0022 2.93662 18.9538 3.89189C20.0308 4.97297 20.6769 6.91892 20.8923 8C21.1077 7.92793 21.5815 7.65405 21.7538 7.13513C21.9262 6.61621 21.9692 5.76576 21.9692 5.4054C22.8308 6.05405 23.0462 7.04865 23.0462 7.56756C23.0462 8.08648 22.9026 9.08108 22.8308 9.51351C23.2615 9.15315 24.2954 8.21621 24.9846 7.35135C25.6738 6.48648 26.5641 5.26126 26.9231 4.75676L28 5.62162C27.641 6.1982 26.7938 7.48108 26.2769 8C25.76 8.51892 24.1231 10.018 23.4769 10.5946C23.5487 10.5225 24.3815 10.5513 25.4154 11.2432C26.4492 11.9351 26.6359 12.7568 26.7077 12.973C26.3487 12.9009 25.935 12.7568 25.4154 12.7568C25.2431 12.7568 24.3385 12.7568 24.1231 12.973C24.4103 13.4054 25.6132 14.2438 26.0615 14.9189C26.4923 15.5676 26.8734 17.0811 27.1385 18.8108C27.5692 21.6216 26.9231 23.1351 27.3538 25.0811C26.4923 24.4324 25.6308 24 24.5538 22.7027C23.9688 21.998 23.2615 20.7568 22.6154 19.6757C22.3282 21.2613 21.9262 24.2595 20.8923 26.1622C19.8585 28.0649 16.441 31.0631 15.0769 32C16.3692 28.1081 15.7231 25.3838 15.7231 23.1351C15.7231 20.8865 16.2974 19.6036 16.5846 19.027C15.6513 20.1081 12.4923 21.8378 9.69231 22.2703Z" fill="black"/>
</svg>
