<svg width="172" height="32" viewBox="0 0 172 32" fill="none" xmlns="http://www.w3.org/2000/svg">
<path d="M121.842 28.3078H117.153V5.03503H125.472C127.813 5.03503 129.828 5.50094 131.517 6.43276C131.87 6.62558 132.146 6.76824 132.465 6.99634L132.938 6.19963L129.147 13.8017L130.351 11.2463C129.93 10.7216 129.483 10.3363 128.881 10.0237C127.888 9.50852 126.665 9.25094 125.21 9.25094H122.074V24.0919H123.963L124.59 22.9796L120.438 31.2418L121.842 28.3078Z" fill="black"/>
<path d="M133.285 7.6604L133.58 6.95203L130.219 13.6017L131.008 12.2034C131.056 12.2955 131.075 12.3361 131.119 12.4327C131.627 13.5236 131.881 14.9289 131.881 16.6486C131.881 18.3835 131.627 19.8001 131.119 20.8986C130.619 21.9895 129.869 22.7963 128.869 23.3191C127.877 23.8342 126.654 24.0918 125.199 24.0918H125.072L125.404 23.2351L121.555 30.9246L122.94 28.3077H125.404C127.767 28.3077 129.797 27.8418 131.494 26.91C133.199 25.9781 134.506 24.641 135.415 22.8986C136.332 21.1562 136.79 19.0728 136.79 16.6486C136.79 14.2319 136.332 12.1562 135.415 10.4213C134.844 9.33151 134.164 8.43033 133.285 7.6604Z" fill="black"/>
<path d="M22.9417 6.75237C22.8049 6.27295 22.5568 5.82721 22.0115 5.41663C22.0115 5.77699 21.9684 6.62744 21.7961 7.14636C21.6238 7.66528 21.1499 7.93916 20.9345 8.01123C20.7192 6.93015 20.073 4.9842 18.9961 3.90312C18.0445 2.94785 15.5499 0.876095 12.7499 0.0112305C13.6115 1.30853 14.0422 2.95177 14.0422 3.47069C14.0422 4.33555 14.6884 5.84907 14.9038 6.2815C14.9571 6.38854 15.0186 6.50523 15.0846 6.63031C15.2319 6.90948 15.4012 7.23039 15.5499 7.5788C14.5448 6.85808 11.8392 5.60073 9.08839 5.41663C5.85762 5.20042 2.62685 5.20042 1.11916 5.63285C2.26788 6.20943 4.13454 7.30361 4.99608 8.01123C5.77475 8.65078 6.20153 9.13913 6.59446 9.58876C7.07104 10.1341 7.49782 10.6224 8.44224 11.2545C9.90463 12.2331 11.367 12.7984 12.5896 13.2709C12.7176 13.3204 12.8429 13.3688 12.9653 13.4166C12.8166 13.4465 12.6494 13.4787 12.4692 13.5134C11.3443 13.7302 9.71028 14.0451 8.87301 14.4977C6.89025 15.5695 5.95522 16.7821 5.14231 17.8363C4.80725 18.2709 4.49293 18.6785 4.13454 19.0383C3.05762 20.1193 1.33454 21.4166 0.0422363 21.8491C0.638697 21.8865 1.39507 21.962 2.23581 22.0459C4.63342 22.2853 7.71711 22.5931 9.73454 22.2815C12.5345 21.8491 15.6935 20.1193 16.6269 19.0383C16.4603 19.3727 16.252 19.82 15.7241 21.0736L14.1762 24.4992L18.5781 15.6775L23.6869 5.41663L23.2214 6.26757L22.9417 6.75237Z" fill="#FF3300"/>
<path d="M15.7728 23.5068C15.7782 23.992 15.804 24.2653 15.8384 24.8021C15.9616 26.7238 16.1088 29.0195 15.1191 32C16.4832 31.0631 19.9007 28.0649 20.9345 26.1622C21.8305 24.5133 22.2519 22.0417 22.5353 20.3797C22.5789 20.1239 22.6193 19.8872 22.6576 19.6757C22.7528 19.8349 22.8493 19.9977 22.9465 20.1616C23.5095 21.1108 24.0972 22.1018 24.5961 22.7027C25.423 23.6989 26.1229 24.1851 26.7934 24.6508C26.9961 24.7916 27.1961 24.9305 27.3961 25.0811C27.1853 24.1289 27.2324 23.2802 27.2849 22.3324C27.3398 21.3433 27.4007 20.2462 27.1807 18.8108C26.9156 17.0811 26.5345 15.5676 26.1038 14.9189C25.8547 14.544 25.3729 14.1186 24.9445 13.7404C24.6016 13.4377 24.293 13.1652 24.1653 12.973C24.3807 12.7568 25.2853 12.7568 25.4576 12.7568C25.8437 12.7568 26.1712 12.8363 26.4613 12.9068C26.5617 12.9312 26.6576 12.9545 26.7499 12.973C26.7446 12.9569 26.7386 12.9375 26.7317 12.915C26.6457 12.6352 26.4145 11.8837 25.4576 11.2433C24.4238 10.5514 23.5909 10.5225 23.5191 10.5946C24.1653 10.018 25.8022 8.51894 26.3191 8.00002C26.8361 7.4811 27.8542 6.31485 28.2131 5.73827L26.9653 4.75678C26.6063 5.26128 26.2189 5.97871 25.0268 7.35137C24.3376 8.21623 23.3038 9.15317 22.873 9.51353C22.8992 9.35548 24.0667 6.90371 24.2811 6.46537L25.584 3.65015L15.3943 23.9494L15.6421 23.6002L15.7728 23.5068Z" fill="#FF3300"/>
<path d="M52.054 12.2158C51.895 11.6628 51.6715 11.1741 51.3836 10.7499C51.0957 10.3181 50.7434 9.95442 50.3268 9.65897C49.9177 9.35594 49.448 9.12488 48.9177 8.96579C48.395 8.8067 47.8154 8.72715 47.179 8.72715C45.9897 8.72715 44.9442 9.02261 44.0427 9.61351C43.1487 10.2044 42.4518 11.0643 41.9518 12.1931C41.4518 13.3143 41.2018 14.6855 41.2018 16.3067C41.2018 17.9279 41.448 19.3067 41.9404 20.4431C42.4328 21.5794 43.1298 22.4468 44.0313 23.0453C44.9328 23.6362 45.9972 23.9317 47.2245 23.9317C48.3381 23.9317 49.2889 23.7347 50.0768 23.3408C50.8722 22.9393 51.4783 22.3749 51.895 21.6476C52.3192 20.9203 52.5313 20.0605 52.5313 19.0681L53.5313 19.2158H47.5313V15.5112H57.27V18.4431C57.27 20.4885 56.8381 22.2461 55.9745 23.7158C55.1109 25.1779 53.9215 26.3067 52.4063 27.1022C50.8912 27.89 49.1563 28.284 47.2018 28.284C45.02 28.284 43.1033 27.8029 41.4518 26.8408C39.8003 25.8711 38.5124 24.4961 37.5881 22.7158C36.6715 20.9279 36.2131 18.8067 36.2131 16.3522C36.2131 14.4658 36.4859 12.784 37.0313 11.3067C37.5843 9.82185 38.3571 8.56427 39.3495 7.53397C40.3419 6.50367 41.4972 5.71957 42.8154 5.1817C44.1336 4.64382 45.5616 4.37488 47.0995 4.37488C48.4177 4.37488 49.645 4.56806 50.7813 4.95442C51.9177 5.33321 52.9253 5.87109 53.804 6.56806C54.6904 7.26503 55.4139 8.09457 55.9745 9.0567C56.5351 10.0112 56.895 11.0643 57.054 12.2158H52.054Z" fill="black"/>
<path d="M68.8296 28.3067C67.0342 28.3067 65.4887 27.9431 64.1932 27.2158C62.9054 26.4809 61.9129 25.4431 61.216 24.1022C60.519 22.7537 60.1705 21.159 60.1705 19.3181C60.1705 17.5226 60.519 15.9468 61.216 14.5908C61.9129 13.2347 62.894 12.1779 64.1592 11.4203C65.4319 10.6628 66.9243 10.284 68.6364 10.284C69.7879 10.284 70.8599 10.4696 71.8523 10.8408C72.8523 11.2044 73.7236 11.7537 74.466 12.4885C75.216 13.2234 75.7993 14.1476 76.216 15.2612C76.6326 16.3673 76.841 17.6628 76.841 19.1476V20.4772H62.1023V17.4772H72.2842C72.2842 16.7802 72.1326 16.1628 71.8296 15.6249C71.5266 15.087 71.1061 14.6665 70.5682 14.3635C70.0379 14.0529 69.4205 13.8976 68.716 13.8976C67.9811 13.8976 67.3296 14.0681 66.7614 14.409C66.2008 14.7423 65.7614 15.1931 65.4432 15.7612C65.1251 16.3218 64.9622 16.9468 64.9546 17.6362V20.4885C64.9546 21.3521 65.1137 22.0984 65.4319 22.7272C65.7576 23.3559 66.216 23.8408 66.8069 24.1817C67.3978 24.5226 68.0986 24.6931 68.9092 24.6931C69.447 24.6931 69.9395 24.6173 70.3864 24.4658C70.8334 24.3143 71.216 24.087 71.5342 23.784C71.8523 23.4809 72.0948 23.1097 72.2614 22.6703L76.7387 22.9658C76.5114 24.0415 76.0455 24.9809 75.341 25.784C74.644 26.5794 73.7425 27.2006 72.6364 27.6476C71.5379 28.087 70.269 28.3067 68.8296 28.3067Z" fill="black"/>
<path d="M84.9773 28.2953C83.8637 28.2953 82.8713 28.1022 82.0001 27.7158C81.1289 27.3218 80.4395 26.7423 79.9319 25.9772C79.4319 25.2044 79.1819 24.2423 79.1819 23.0908C79.1819 22.1211 79.3599 21.3067 79.716 20.6476C80.072 19.9885 80.5569 19.4582 81.1705 19.0567C81.7842 18.6552 82.4811 18.3522 83.2614 18.1476C84.0493 17.9431 84.8751 17.7991 85.7387 17.7158C86.7539 17.6097 87.572 17.5112 88.1932 17.4203C88.8145 17.3218 89.2652 17.1779 89.5455 16.9885C89.8258 16.7991 89.966 16.5188 89.966 16.1476V16.0794C89.966 15.3597 89.7387 14.8029 89.2842 14.409C88.8372 14.015 88.2008 13.8181 87.3751 13.8181C86.5039 13.8181 85.8107 14.0112 85.2955 14.3976C84.7804 14.7764 84.4395 15.2537 84.2728 15.8294L79.7955 15.4658C80.0228 14.4052 80.4698 13.4885 81.1364 12.7158C81.8031 11.9355 82.6629 11.337 83.716 10.9203C84.7766 10.4961 86.0039 10.284 87.3978 10.284C88.3675 10.284 89.2955 10.3976 90.1819 10.6249C91.0758 10.8522 91.8675 11.2044 92.5569 11.6817C93.2539 12.159 93.8031 12.7726 94.2046 13.5226C94.6061 14.265 94.8069 15.1552 94.8069 16.1931V27.9658H90.216V25.5453H90.0796C89.7993 26.0908 89.4243 26.5718 88.9546 26.9885C88.4849 27.3976 87.9205 27.7196 87.2614 27.9544C86.6023 28.1817 85.841 28.2953 84.9773 28.2953ZM86.3637 24.9544C87.0758 24.9544 87.7046 24.8143 88.2501 24.534C88.7955 24.2461 89.2235 23.8597 89.5342 23.3749C89.8448 22.89 90.0001 22.3408 90.0001 21.7272V19.8749C89.8486 19.9734 89.6402 20.0643 89.3751 20.1476C89.1175 20.2234 88.8258 20.2953 88.5001 20.3635C88.1743 20.4241 87.8485 20.4809 87.5228 20.534C87.197 20.5794 86.9016 20.6211 86.6364 20.659C86.0682 20.7423 85.572 20.8749 85.1478 21.0567C84.7235 21.2385 84.394 21.4847 84.1592 21.7953C83.9243 22.0984 83.8069 22.4772 83.8069 22.9317C83.8069 23.5908 84.0455 24.0946 84.5228 24.4431C85.0076 24.784 85.6213 24.9544 86.3637 24.9544Z" fill="black"/>
<path d="M98.5626 27.9658V10.5112H103.256V13.5567H103.438C103.756 12.4734 104.29 11.6552 105.04 11.1022C105.79 10.5415 106.653 10.2612 107.631 10.2612C107.873 10.2612 108.135 10.2764 108.415 10.3067C108.695 10.337 108.941 10.3787 109.153 10.4317V14.7272C108.926 14.659 108.612 14.5984 108.21 14.5453C107.809 14.4923 107.441 14.4658 107.108 14.4658C106.396 14.4658 105.76 14.6211 105.199 14.9317C104.646 15.2347 104.207 15.659 103.881 16.2044C103.563 16.7499 103.403 17.3787 103.403 18.0908V27.9658H98.5626Z" fill="black"/>
<path d="M140.344 28.3067V10.8522H145.185V28.3067H140.344ZM142.776 8.6022C142.056 8.6022 141.439 8.36356 140.923 7.88629C140.416 7.40144 140.162 6.82189 140.162 6.14765C140.162 5.48098 140.416 4.90901 140.923 4.43174C141.439 3.94689 142.056 3.70447 142.776 3.70447C143.495 3.70447 144.109 3.94689 144.617 4.43174C145.132 4.90901 145.389 5.48098 145.389 6.14765C145.389 6.82189 145.132 7.40144 144.617 7.88629C144.109 8.36356 143.495 8.6022 142.776 8.6022Z" fill="black"/>
<path d="M158.449 10.8522V14.4886H147.676V10.8522H158.449ZM150.142 28.3067V9.59083C150.142 8.32568 150.388 7.27644 150.881 6.4431C151.381 5.60977 152.063 4.98477 152.926 4.5681C153.79 4.15144 154.771 3.9431 155.869 3.9431C156.612 3.9431 157.29 3.99992 157.903 4.11356C158.525 4.2272 158.987 4.32947 159.29 4.42038L158.426 8.05674C158.237 7.99614 158.002 7.93932 157.722 7.88629C157.449 7.83326 157.169 7.80674 156.881 7.80674C156.169 7.80674 155.672 7.97341 155.392 8.30674C155.112 8.6325 154.972 9.09083 154.972 9.68174V28.3067H150.142Z" fill="black"/>
<path d="M170.793 10.8522V14.4886H160.02V10.8522H170.793ZM162.486 28.3067V9.59083C162.486 8.32568 162.732 7.27644 163.224 6.4431C163.724 5.60977 164.406 4.98477 165.27 4.5681C166.134 4.15144 167.115 3.9431 168.213 3.9431C168.956 3.9431 169.634 3.99992 170.247 4.11356C170.868 4.2272 171.331 4.32947 171.634 4.42038L170.77 8.05674C170.581 7.99614 170.346 7.93932 170.065 7.88629C169.793 7.83326 169.512 7.80674 169.224 7.80674C168.512 7.80674 168.016 7.97341 167.736 8.30674C167.456 8.6325 167.315 9.09083 167.315 9.68174V28.3067H162.486Z" fill="black"/>
</svg>
