<svg width="14" height="13" viewBox="0 0 14 13" fill="none" xmlns="http://www.w3.org/2000/svg">
<path d="M6.32745 0.927626C6.60256 0.370193 7.39744 0.370193 7.67255 0.927628L8.89429 3.40313C9.07636 3.77206 9.42832 4.02777 9.83546 4.08693L12.5673 4.4839C13.1825 4.57329 13.4281 5.32927 12.983 5.76317L11.0062 7.69008C10.7116 7.97725 10.5771 8.391 10.6467 8.79649L11.1134 11.5173C11.2184 12.13 10.5754 12.5972 10.0251 12.308L7.58168 11.0234C7.21752 10.8319 6.78248 10.8319 6.41832 11.0234L3.97485 12.308C3.42463 12.5972 2.78156 12.13 2.88664 11.5173L3.3533 8.79649C3.42285 8.391 3.28842 7.97725 2.99381 7.69008L1.017 5.76317C0.571862 5.32927 0.817494 4.57329 1.43266 4.4839L4.16454 4.08693C4.57168 4.02777 4.92364 3.77206 5.10571 3.40313L6.32745 0.927626Z" fill="#667788" stroke="#7B7B7B" stroke-width="0.5"/>
</svg>
