<svg width="16" height="16" viewBox="0 0 16 16" fill="none" xmlns="http://www.w3.org/2000/svg">
<path d="M7.41096 1.38887C7.65627 0.870377 8.34373 0.870377 8.58904 1.38887L10.0073 4.38663C10.2447 4.88835 10.7092 5.24635 11.2584 5.32959L14.4298 5.81031C14.9501 5.88916 15.2148 6.60062 14.7917 7.0309L12.4968 9.36432C12.1086 9.75904 11.9362 10.3213 12.0261 10.8679L12.5678 14.1628C12.6709 14.7898 12.0603 15.1628 11.6172 14.9198L8.78063 13.3642C8.29268 13.0966 7.70732 13.0966 7.21937 13.3642L7.45979 13.8026L7.21937 13.3642L4.38278 14.9198C3.93965 15.1628 3.3291 14.7898 3.43219 14.1628L3.97393 10.8679C4.0638 10.3213 3.89136 9.75903 3.50318 9.36432L1.20833 7.0309C0.785169 6.60062 1.04991 5.88916 1.57015 5.81031L4.74156 5.32959C5.29077 5.24634 5.75529 4.88835 5.99267 4.38662L7.41096 1.38887Z" fill="url(#paint0_radial_81_1015)" stroke="#FFAE00"/>
<defs>
<radialGradient id="paint0_radial_81_1015" cx="0" cy="0" r="1" gradientUnits="userSpaceOnUse" gradientTransform="translate(11.0957 8.6625) rotate(180) scale(7.73924 10.8814)">
<stop stop-color="#FFBB00"/>
<stop offset="1" stop-color="#FFE104"/>
</radialGradient>
</defs>
</svg>
